<svg xmlns="http://www.w3.org/2000/svg" xmlns:xlink="http://www.w3.org/1999/xlink" width="100%" height="100%" version="1.1" viewBox="0 0 1217 1108" xml:space="preserve" style="fill-rule:evenodd;clip-rule:evenodd;stroke-linejoin:round;stroke-miterlimit:2"><g id="Layer-1"><path d="M73.704,1014.31l-17.075,-0l0,-29.438l17.075,0c9.213,0 14.604,5.621 14.604,14.604c0,11.463 -8.762,14.834 -14.604,14.834m70.329,-13.034c0,-35.504 -26.287,-60.671 -64.041,-60.671l-79.992,0l0,164.488l56.629,0l0,-48.763l6.738,0l33.479,48.763l62.917,0l-43.367,-57.525c17.308,-7.642 27.637,-25.846 27.637,-46.292" style="fill-rule:nonzero"/><path d="M263.371,1038.8c-0,17.075 -12.129,21.341 -19.996,21.341c-7.642,0 -20.225,-4.266 -20.225,-21.341l0,-98.204l-56.175,-0l0,96.175c0,43.375 30.563,70.787 76.4,70.787c46.292,0 76.404,-27.412 76.404,-70.787l0,-96.175l-56.408,-0l-0,98.204Z" style="fill-rule:nonzero"/><path d="M482.03,1052.28c-0,-41.567 -37.53,-46.967 -67.413,-51.454c-12.812,-1.8 -20.896,-4.725 -20.896,-10.338c0,-4.945 3.813,-8.091 11.909,-8.091c17.525,-0 33.254,7.187 48.312,17.304l23.592,-33.933c-18.2,-17.525 -42.246,-27.413 -70.779,-27.413c-29.892,0 -69.213,11.908 -69.213,54.379c0,41.342 44.042,46.742 70.329,51.684c10.563,2.02 17.75,5.166 17.75,10.787c0,4.717 -3.366,8.088 -15.5,8.088c-18.2,-0 -40.446,-10.109 -53.704,-19.775l-24.275,33.483c22.025,18.654 46.071,30.783 80.675,30.783c40.671,0 69.213,-18.204 69.213,-55.504" style="fill-rule:nonzero"/><path d="M625.183,940.6l-139.325,0l-0,44.271l41.804,0l-0,120.217l55.946,-0l-0,-120.217l41.575,0l-0,-44.271Z" style="fill-rule:nonzero"/><path d="M791.923,1036.78l-0,-96.175l-56.4,0l-0,98.205c-0,17.075 -12.129,21.341 -20,21.341c-7.638,0 -20.221,-4.266 -20.221,-21.341l0,-98.205l-56.175,0l0,96.175c0,43.375 30.554,70.788 76.396,70.788c46.287,-0 76.4,-27.413 76.4,-70.788" style="fill-rule:nonzero"/><path d="M977.324,940.6l-56.179,0l-0,69.213l-75.055,-69.213l-23.362,0l-0,164.488l56.175,-0l-0,-68.758l74.825,68.758l23.596,-0l-0,-164.488Z" style="fill-rule:nonzero"/><rect width="56.179" height="164.488" x="1008.12" y="940.605"/><path d="M1077.35,940.6l-0,44.271l41.796,0l-0,120.217l55.95,-0l-0,-120.217l41.575,0l-0,-44.271l-139.321,0Z" style="fill-rule:nonzero"/><path d="M591.037,383.829c0,-50.15 -37.146,-85.709 -90.471,-85.709l-113.008,0l-0,232.367l79.996,0l-0,-169.829l24.125,-0c13.012,-0 20.629,7.937 20.629,20.629c-0,0.063 -0.017,0.108 -0.017,0.171l0.017,-0.008l-0,149.037l100.95,0l-61.271,-81.267c24.446,-10.791 39.05,-36.508 39.05,-65.391" style="fill-rule:nonzero"/><path d="M749.432,298.12l0,138.725c0,24.125 -17.137,30.15 -28.254,30.15c-10.787,0 -28.562,-6.025 -28.562,-30.15l-0,-138.725l-79.359,0l0,135.867c0,61.262 43.163,99.991 107.921,99.991c65.392,0 107.929,-38.729 107.929,-99.991l0,-135.867l-79.675,0Z" style="fill-rule:nonzero"/><path d="M608.342,713.496c-33.779,-0 -66.187,-5.746 -96.446,-16.129c-0.537,-0.154 -1.033,-0.25 -1.579,-0.421c-68.862,-21.592 -110.567,-63.738 -138.087,-100.067c-1.192,-1.554 -2.363,-3.121 -3.525,-4.7c-1.463,-1.987 -2.913,-3.971 -4.292,-5.912l-0.021,-0.088c-33.708,-48.225 -53.529,-106.866 -53.529,-170.162c-0,-164.217 133.196,-297.413 297.479,-297.413c38.038,0 74.396,7.171 107.825,20.188l0.008,-0.013c0.092,0.034 0.196,0.084 0.288,0.121c1.562,0.608 3.071,1.313 4.621,1.946c1.379,0.587 2.733,1.146 4.141,1.775c8.246,3.529 16.367,7.304 24.209,11.537l-0,0.659c26.529,14.808 55.304,35.691 79.671,61.979l-0,-0.038c0.3,0.334 0.579,0.684 0.879,1.017c10.771,11.729 20.683,24.471 29.075,38.254c0.112,0.184 0.171,0.338 0.279,0.517c29.358,46.096 46.417,100.783 46.417,159.471c-0,164.283 -133.13,297.479 -297.413,297.479m346.858,-297.479c0,-4.75 -0.066,-9.434 -0.333,-14.117l68.167,-29.883l-4.975,-28.213l-4.975,-28.216l-74.163,-4.759l-0.004,0c-2.879,-9.046 -6.096,-17.958 -9.712,-26.666l53.758,-51.325l-14.321,-24.813l-14.325,-24.812l-71.375,20.912c-5.754,-7.492 -11.837,-14.779 -18.192,-21.737c-0.004,-0 -0.008,-0.005 -0.012,-0.009l32.971,-66.625l-43.892,-36.833l-59.887,44.037c-7.967,-5.087 -16.138,-9.841 -24.575,-14.195l8.195,-73.871l-53.841,-19.6l-41.2,61.841c-9.179,-2.012 -18.492,-3.687 -27.938,-4.891c-0.004,-0 -0.012,-0 -0.021,-0.005l-17.57,-72.237l-57.296,0l-17.575,72.242c-9.446,1.208 -18.759,2.879 -27.938,4.891c-0.004,0 -0.008,0.005 -0.016,0.005l-41.2,-61.846l-53.842,19.6l8.196,73.883c-8.429,4.35 -16.596,9.1 -24.554,14.188c-0.005,-0.001 -0.009,-0.001 -0.013,0.004l-59.896,-44.046l-43.891,36.833l32.975,66.638c-6.35,6.958 -12.438,14.245 -18.192,21.737l-71.392,-20.916l-28.65,49.625l53.779,51.337c-3.616,8.704 -6.829,17.613 -9.708,26.654l-74.187,4.759l-4.975,28.216l-4.975,28.213l68.187,29.891c-0.267,4.684 -0.333,9.363 -0.333,14.109c-0,4.745 0.071,9.491 0.333,14.17l-68.187,29.896l9.95,56.425l74.183,4.763c-0,-0 0.004,-0 0.004,0.004c2.879,9.038 6.092,17.942 9.708,26.65l-53.779,51.338l14.325,24.812l14.325,24.808l71.446,-20.929c5.683,7.488 11.767,14.708 18.183,21.663l-33.02,66.729l21.945,18.416l21.946,18.413l59.896,-44.042c0.004,0.005 0.008,0.005 0.013,0.009c7.958,5.083 16.12,9.833 24.554,14.183l-8.196,73.883l26.921,9.8l26.921,9.796l41.2,-61.842c0.004,0.005 0.012,0.005 0.016,0.005c9.179,2.012 18.492,3.687 27.938,4.891l17.575,72.238l57.296,-0l17.57,-72.234c0.009,0 0.017,-0.004 0.021,-0.004c9.446,-1.204 18.763,-2.879 27.942,-4.891l41.196,61.837l26.921,-9.796l26.92,-9.8l-8.191,-73.87c8.433,-4.355 16.604,-9.109 24.571,-14.196l59.887,44.033l21.946,-18.413l21.946,-18.416l-33.013,-66.713c6.421,-6.958 12.509,-14.183 18.192,-21.675l71.429,20.925l14.325,-24.808l14.321,-24.812l-53.758,-51.325c3.616,-8.709 6.833,-17.621 9.712,-26.663c0.004,-0.004 0.004,-0.004 0.004,-0.008l74.163,-4.759l9.95,-56.425l-68.167,-29.887c0.267,-4.679 0.333,-9.429 0.333,-14.179" style="fill-rule:nonzero"/></g></svg>